<svg xmlns="http://www.w3.org/2000/svg" width="100" height="100"><path fill-rule="evenodd" clip-rule="evenodd" fill="#C0392B" d="M100 58c0 3.313-2.687 6-6 6h-73c-3.313 0-6-2.687-6-6v-52c0-3.313 2.687-6 6-6h73c3.313 0 6 2.687 6 6v52z"/><path fill-rule="evenodd" clip-rule="evenodd" fill="#E74C3C" d="M85 73c0 3.223-2.74 6-6 6h-13c-1.113 0-2 .754-2 2v18c0 .738-.253 1-.917 1-.232 0-.471-.154-.865-.457l-23.967-18.543c-3-2-6.129-2.006-6.129-2.006l-26.22-.002c-3.26 0-5.902-2.613-5.902-5.836v-51.125c0-3.221 2.896-6.047 6-6.031h73c3.562 0 6 2.778 6 6v51z"/></svg>